<svg id="Camada_1" data-name="Camada 1" xmlns="http://www.w3.org/2000/svg" viewBox="0 0 523.05 492.57"><defs><style>.cls-1{fill:#9e616a;}.cls-2{fill:#327aff;}.cls-3{fill:#e2e2e2;}.cls-4{fill:#3f3d56;}.cls-5{fill:#fff;}.cls-6{fill:#2f2e41;}</style></defs><path id="uuid-2dbd2d67-52d2-45fe-b410-d6387c9b42a0-85" class="cls-1" d="M246.35,214.2c-2.64-5.83-1.65-11.94,2.21-13.64s9.14,1.65,11.78,7.49a15.41,15.41,0,0,1,1.44,7.42l10.86,24.84-12.25,4.92-9.4-25a15.66,15.66,0,0,1-4.64-6Z" transform="translate(0 0)"/><path class="cls-2" d="M321.39,224.75h0a15,15,0,0,1-.88,22.6l-34.7,28A7.87,7.87,0,0,1,274,273c-9.12-14.76-10.84-15.57-16.14-30.7l14.94-5.23,8.43,10.55,18.4-21.7a15,15,0,0,1,21.74-1.21Z" transform="translate(0 0)"/><rect class="cls-3" x="78.43" y="176" width="109" height="11"/><rect class="cls-3" x="354.43" y="176" width="109" height="11"/><rect class="cls-4" x="107.09" y="138.01" width="44.81" height="94.99" rx="13.09"/><rect class="cls-4" x="401.03" y="138.01" width="44.81" height="94.99" rx="13.09"/><path d="M420.94,209.7H136.34a20.45,20.45,0,0,1-20.13-16.8L105.32,133a72.54,72.54,0,0,1,25.6-69.25l21.46-46.17A30.58,30.58,0,0,1,180,0H340.32a30.54,30.54,0,0,1,22.46,9.89L402.22,53a97.62,97.62,0,0,1,42.72,87.77l-3.59,50A20.54,20.54,0,0,1,420.94,209.7Z" transform="translate(0 0)"/><path class="cls-5" d="M372.37,59.59h-215a11,11,0,0,1-10.06-15.44l11.33-25.63A11.05,11.05,0,0,1,168.48,12l183.29.23a11.12,11.12,0,0,1,8.94,4.31l20.39,25.4a11,11,0,0,1-8.73,17.68Z" transform="translate(0 0)"/><circle class="cls-5" cx="404.61" cy="108.43" r="18.82"/><circle class="cls-5" cx="157.27" cy="108.43" r="18.82"/><path class="cls-4" d="M386.24,178.78H181v-.45a19.29,19.29,0,0,1,19.27-19.26H367a19.28,19.28,0,0,1,19.27,19.26Z" transform="translate(0 0)"/><path d="M133.94,67.74a5.17,5.17,0,0,1-3.16-1.07l-7.51-5.74a4.36,4.36,0,0,0-2.62-.89H104.24a5.2,5.2,0,0,1-4.51-7.79l4-7a5.21,5.21,0,0,1,3.82-2.57L128.09,40a5.19,5.19,0,0,1,5.68,3.68l5.16,17.41a5.2,5.2,0,0,1-5,6.68Z" transform="translate(0 0)"/><path d="M400.17,64.15a5.19,5.19,0,0,1-5-6.67l5.16-17.41A5.16,5.16,0,0,1,406,36.39l20.53,2.73a5.27,5.27,0,0,1,3.83,2.57l4,7a5.2,5.2,0,0,1-4.51,7.79H413.45a4.3,4.3,0,0,0-2.61.88l-7.52,5.75a5.18,5.18,0,0,1-3.15,1.06Z" transform="translate(0 0)"/><rect class="cls-3" x="78.43" y="34" width="11" height="451"/><rect class="cls-3" x="458.43" y="34" width="11" height="451"/><path class="cls-4" d="M0,485.44a.62.62,0,0,0,.62.62H522.43a.62.62,0,1,0,0-1.24H.62A.62.62,0,0,0,0,485.44Z" transform="translate(0 0)"/><polygon class="cls-1" points="344.54 451.32 344.54 471.75 359.99 472.25 359.34 451.32 344.54 451.32"/><path class="cls-6" d="M341.48,462.69a2.49,2.49,0,0,0-.61.08c-2.79.8-18.92,15.21-23.8,19.6a2.66,2.66,0,0,0,.22,4.14c3.7,2.66,11.28,6.88,20.48,5.18,4.23-.79,8.5-1.28,12.27-1.72,8.06-.93,14.43-1.66,14.43-4.52,0-4.84-1.33-17.61-3-18.14-.16-.05-.33.07-.53.35-2.56,3.58-11.35,1.68-11.72,1.59l-.1,0-.05-.08c-.05-.07-4.35-6.46-7.59-6.46Z" transform="translate(0 0)"/><polygon class="cls-1" points="315.64 451.32 315.64 471.75 331.09 472.25 330.44 451.32 315.64 451.32"/><polygon class="cls-6" points="309.41 305.09 301.19 311.32 299.7 381.57 313.65 458.3 331.83 459.05 332.33 385.8 355.75 319.04 351.02 303.34 309.41 305.09"/><polygon class="cls-6" points="347.78 317.05 355.75 319.04 361.48 458.3 340.8 456.56 327.1 358.15 347.78 317.05"/><path class="cls-6" d="M304.61,492.57a28.83,28.83,0,0,1-15.92-5.24,3.68,3.68,0,0,1-.36-5.77c7.64-6.87,20.84-18.5,23.51-19.27,3.45-1,8.09,5.62,8.69,6.5,1,.2,8.87,1.71,11.1-1.42.43-.59.83-.62,1.09-.54,2.38.77,3.35,16.12,3.35,18.62,0,3.3-6.24,4-14.87,5-3.76.43-8,.93-12.24,1.71a24.41,24.41,0,0,1-4.35.39Z" transform="translate(0 0)"/><polygon class="cls-1" points="326.5 214.09 332.17 225.53 310.72 235.89 310.99 217.56 326.5 214.09"/><circle class="cls-1" cx="310.8" cy="203.44" r="19.3"/><path class="cls-2" d="M310.67,231.43l19.79-11.69h0c14.51,10.17,26.6,12.56,27,30.28l-2.67,42.28.16,18.21a13.76,13.76,0,0,1-13.76,13.87H312.91a11.73,11.73,0,0,1-11.47-14.21l5.33-24.77-5.7-48.27,9.6-5.7Z" transform="translate(0 0)"/><path class="cls-6" d="M330.65,213.15l-3.57,2.56s-1.05-11.14-2.5-11.64-3.4,2.08-3.4,2.08l-1.43,4.18-4.72-2s-5.47-2.94-7.4-3.6S306,198.5,306,198.5s-23.19,3.18-19.7-10.19c0,0,1.2-9.84,3.76-7.88s2.61-2.89,2.61-2.89l5.81-1.25s8-10.75,23.74-1.6,8.44,38.46,8.44,38.46Z" transform="translate(0 0)"/><path class="cls-4" d="M290.37,255.87l-5.22-.79a2.68,2.68,0,0,1-2.24-3.05l.64-4.18a7.84,7.84,0,0,0,1.15,13.94l-4.57,29.95a1.62,1.62,0,0,0,0,.22,7.85,7.85,0,0,0-5.66,12.49l.57-3.77a2.68,2.68,0,0,1,3.05-2.24l5.22.79a2.69,2.69,0,0,1,2.24,3l-.64,4.18a7.84,7.84,0,0,0-1.17-13.95,1.41,1.41,0,0,0,.06-.22l4.56-29.94A7.85,7.85,0,0,0,294,249.86l-.57,3.77a2.68,2.68,0,0,1-3.05,2.24Z" transform="translate(0 0)"/><path id="uuid-610469c6-e523-485c-9269-d5059242b223-86" class="cls-1" d="M280.66,281.93c-6.26-1.35-10.58-5.78-9.64-9.89s6.76-6.36,13-5a15.55,15.55,0,0,1,6.82,3.26l26.43,6.05L314,289.1l-25.71-7.32A15.73,15.73,0,0,1,280.66,281.93Z" transform="translate(0 0)"/><path class="cls-2" d="M333.78,227.89h0A15,15,0,0,1,351.42,242l1.83,44.52a7.88,7.88,0,0,1-8.83,8.14c-17.29-1.46-16.08.31-31.39-4.43l1-16.27,14.27-.22-6.5-27.69A15,15,0,0,1,333.78,227.89Z" transform="translate(0 0)"/></svg>